<mxfile host="65bd71144e">
    <diagram id="YMNz2hrI4OsaqA7sjCJ5" name="PÃ¡gina-1">
        <mxGraphModel dx="1357" dy="1582" grid="1" gridSize="10" guides="1" tooltips="1" connect="1" arrows="1" fold="1" page="1" pageScale="1" pageWidth="827" pageHeight="1169" math="0" shadow="0">
            <root>
                <mxCell id="0"/>
                <mxCell id="1" parent="0"/>
                <mxCell id="4" value="" style="edgeStyle=none;html=1;" parent="1" source="2" target="3" edge="1">
                    <mxGeometry relative="1" as="geometry"/>
                </mxCell>
                <mxCell id="2" value="INICIO" style="ellipse;whiteSpace=wrap;html=1;fillColor=#fa6800;fontColor=#000000;strokeColor=#C73500;" parent="1" vertex="1">
                    <mxGeometry x="180" y="-1120" width="120" height="80" as="geometry"/>
                </mxCell>
                <mxCell id="6" value="" style="edgeStyle=none;html=1;" parent="1" source="3" target="5" edge="1">
                    <mxGeometry relative="1" as="geometry"/>
                </mxCell>
                <mxCell id="3" value="a, b, c" style="shape=parallelogram;perimeter=parallelogramPerimeter;whiteSpace=wrap;html=1;fixedSize=1;fillColor=#e51400;fontColor=#ffffff;strokeColor=#B20000;" parent="1" vertex="1">
                    <mxGeometry x="180" y="-970" width="120" height="60" as="geometry"/>
                </mxCell>
                <mxCell id="20" value="" style="edgeStyle=none;html=1;" parent="1" source="5" target="19" edge="1">
                    <mxGeometry relative="1" as="geometry">
                        <Array as="points">
                            <mxPoint x="90" y="-800"/>
                        </Array>
                    </mxGeometry>
                </mxCell>
                <mxCell id="43" value="" style="edgeStyle=none;html=1;fontColor=#000000;" parent="1" source="5" target="42" edge="1">
                    <mxGeometry relative="1" as="geometry">
                        <Array as="points">
                            <mxPoint x="490" y="-800"/>
                        </Array>
                    </mxGeometry>
                </mxCell>
                <mxCell id="5" value="d=b&lt;sup&gt;2&lt;/sup&gt;&lt;span style=&quot;font-size: 10px;&quot;&gt;-4ac&lt;/span&gt;" style="rhombus;whiteSpace=wrap;html=1;fillColor=#76608a;fontColor=#ffffff;strokeColor=#432D57;" parent="1" vertex="1">
                    <mxGeometry x="200" y="-840" width="80" height="80" as="geometry"/>
                </mxCell>
                <mxCell id="27" value="" style="edgeStyle=none;html=1;" parent="1" source="19" target="30" edge="1">
                    <mxGeometry relative="1" as="geometry">
                        <Array as="points">
                            <mxPoint x="-80" y="-700"/>
                        </Array>
                        <mxPoint x="-80" y="-650" as="targetPoint"/>
                    </mxGeometry>
                </mxCell>
                <mxCell id="32" value="" style="edgeStyle=none;html=1;fontColor=none;" parent="1" source="19" target="31" edge="1">
                    <mxGeometry relative="1" as="geometry">
                        <Array as="points">
                            <mxPoint x="220" y="-700"/>
                        </Array>
                    </mxGeometry>
                </mxCell>
                <mxCell id="19" value="d&amp;gt;0" style="rhombus;whiteSpace=wrap;html=1;fillColor=#6a00ff;fontColor=#ffffff;strokeColor=#3700CC;" parent="1" vertex="1">
                    <mxGeometry x="50" y="-740" width="80" height="80" as="geometry"/>
                </mxCell>
                <mxCell id="28" value="&lt;b&gt;false&lt;/b&gt;" style="text;html=1;align=center;verticalAlign=middle;resizable=0;points=[];autosize=1;strokeColor=none;fillColor=none;" parent="1" vertex="1">
                    <mxGeometry x="165" y="-855" width="50" height="30" as="geometry"/>
                </mxCell>
                <mxCell id="29" value="&lt;b&gt;true&lt;/b&gt;" style="text;html=1;align=center;verticalAlign=middle;resizable=0;points=[];autosize=1;strokeColor=none;fillColor=none;" parent="1" vertex="1">
                    <mxGeometry x="275" y="-855" width="50" height="30" as="geometry"/>
                </mxCell>
                <mxCell id="30" value="numeros imaginarios" style="shape=document;whiteSpace=wrap;html=1;boundedLbl=1;fontColor=#000000;fillColor=#f0a30a;strokeColor=#BD7000;" parent="1" vertex="1">
                    <mxGeometry x="-140" y="-650" width="120" height="80" as="geometry"/>
                </mxCell>
                <mxCell id="34" value="" style="edgeStyle=none;html=1;fontColor=none;" parent="1" source="31" target="33" edge="1">
                    <mxGeometry relative="1" as="geometry"/>
                </mxCell>
                <mxCell id="31" value="x&lt;span style=&quot;font-size: 10px;&quot;&gt;1&lt;/span&gt;=((-b +sqrt(d))/2a))&lt;br&gt;x2=((-b-sqrt(d))/2a))" style="whiteSpace=wrap;html=1;fillColor=#a0522d;strokeColor=#6D1F00;fontColor=#ffffff;" parent="1" vertex="1">
                    <mxGeometry x="150" y="-651" width="140" height="70" as="geometry"/>
                </mxCell>
                <mxCell id="33" value="x1,x2" style="shape=document;whiteSpace=wrap;html=1;boundedLbl=1;fillColor=#63E2C0;strokeColor=#268857;" parent="1" vertex="1">
                    <mxGeometry x="160" y="-506" width="120" height="80" as="geometry"/>
                </mxCell>
                <mxCell id="38" value="" style="endArrow=classic;html=1;fontColor=#000000;exitX=0.533;exitY=0.888;exitDx=0;exitDy=0;exitPerimeter=0;" parent="1" edge="1" source="33">
                    <mxGeometry width="50" height="50" relative="1" as="geometry">
                        <mxPoint x="280" y="-470" as="sourcePoint"/>
                        <mxPoint x="140" y="-320" as="targetPoint"/>
                        <Array as="points">
                            <mxPoint x="224" y="-320"/>
                        </Array>
                    </mxGeometry>
                </mxCell>
                <mxCell id="39" value="FIN" style="ellipse;whiteSpace=wrap;html=1;strokeColor=#A50040;fontColor=#ffffff;fillColor=#d80073;" parent="1" vertex="1">
                    <mxGeometry x="20" y="-160" width="120" height="80" as="geometry"/>
                </mxCell>
                <mxCell id="40" value="" style="endArrow=classic;html=1;fontColor=#000000;entryX=0;entryY=0.5;entryDx=0;entryDy=0;" parent="1" target="39" edge="1">
                    <mxGeometry width="50" height="50" relative="1" as="geometry">
                        <mxPoint x="-80" y="-570" as="sourcePoint"/>
                        <mxPoint x="-80" y="-160" as="targetPoint"/>
                        <Array as="points">
                            <mxPoint x="-80" y="-120"/>
                        </Array>
                    </mxGeometry>
                </mxCell>
                <mxCell id="46" value="" style="edgeStyle=none;html=1;fontColor=#000000;" parent="1" source="42" target="45" edge="1">
                    <mxGeometry relative="1" as="geometry"/>
                </mxCell>
                <mxCell id="42" value="x1=((-b))/(2a))&lt;br&gt;x2=x1" style="whiteSpace=wrap;html=1;fillColor=#60a917;strokeColor=#2D7600;fontColor=#ffffff;" parent="1" vertex="1">
                    <mxGeometry x="430" y="-711" width="120" height="60" as="geometry"/>
                </mxCell>
                <mxCell id="45" value="x1,x2" style="shape=document;whiteSpace=wrap;html=1;boundedLbl=1;fillColor=#a20025;strokeColor=#6F0000;fontColor=#ffffff;" parent="1" vertex="1">
                    <mxGeometry x="430" y="-590" width="120" height="80" as="geometry"/>
                </mxCell>
                <mxCell id="47" value="" style="endArrow=classic;html=1;fontColor=#000000;" parent="1" edge="1">
                    <mxGeometry width="50" height="50" relative="1" as="geometry">
                        <mxPoint x="490" y="-510" as="sourcePoint"/>
                        <mxPoint x="80" y="-230" as="targetPoint"/>
                        <Array as="points">
                            <mxPoint x="490" y="-230"/>
                        </Array>
                    </mxGeometry>
                </mxCell>
                <mxCell id="48" value="&lt;b&gt;&lt;font color=&quot;#ffffff&quot;&gt;false&lt;/font&gt;&lt;/b&gt;" style="text;html=1;align=center;verticalAlign=middle;resizable=0;points=[];autosize=1;strokeColor=none;fillColor=none;fontColor=#000000;" parent="1" vertex="1">
                    <mxGeometry x="-30" y="-741" width="50" height="30" as="geometry"/>
                </mxCell>
                <mxCell id="49" value="&lt;b&gt;&lt;font color=&quot;#ffffff&quot;&gt;true&lt;/font&gt;&lt;/b&gt;" style="text;html=1;align=center;verticalAlign=middle;resizable=0;points=[];autosize=1;strokeColor=none;fillColor=none;fontColor=#000000;" parent="1" vertex="1">
                    <mxGeometry x="135" y="-741" width="50" height="30" as="geometry"/>
                </mxCell>
                <mxCell id="50" value="" style="shape=document;whiteSpace=wrap;html=1;boundedLbl=1;fillColor=#6d8764;fontColor=#ffffff;strokeColor=#3A5431;" vertex="1" parent="1">
                    <mxGeometry x="20" y="-360" width="120" height="80" as="geometry"/>
                </mxCell>
                <mxCell id="51" value="" style="endArrow=classic;html=1;entryX=0.5;entryY=0;entryDx=0;entryDy=0;" edge="1" parent="1" target="39">
                    <mxGeometry width="50" height="50" relative="1" as="geometry">
                        <mxPoint x="80" y="-280" as="sourcePoint"/>
                        <mxPoint x="80" y="-170" as="targetPoint"/>
                    </mxGeometry>
                </mxCell>
            </root>
        </mxGraphModel>
    </diagram>
</mxfile>